<?xml version="1.0" encoding="UTF-8" standalone="no"?>
<svg
   class="w-8 h-8 inline-block"
   fill="none"
   viewBox="0 0 568 501"
   version="1.1"
   id="svg1"
   sodipodi:docname="bluesky_butterfly.svg"
   inkscape:version="1.4.2 (ebf0e940d0, 2025-05-08)"
   xmlns:inkscape="http://www.inkscape.org/namespaces/inkscape"
   xmlns:sodipodi="http://sodipodi.sourceforge.net/DTD/sodipodi-0.dtd"
   xmlns="http://www.w3.org/2000/svg"
   xmlns:svg="http://www.w3.org/2000/svg"
   xmlns:rdf="http://www.w3.org/1999/02/22-rdf-syntax-ns#"
   xmlns:cc="http://creativecommons.org/ns#"
   xmlns:dc="http://purl.org/dc/elements/1.1/">
  <defs
     id="defs1" />
  <sodipodi:namedview
     id="namedview1"
     pagecolor="#505050"
     bordercolor="#eeeeee"
     borderopacity="1"
     inkscape:showpageshadow="0"
     inkscape:pageopacity="0"
     inkscape:pagecheckerboard="0"
     inkscape:deskcolor="#505050"
     inkscape:zoom="1.6087824"
     inkscape:cx="284.06576"
     inkscape:cy="250.5"
     inkscape:window-width="1920"
     inkscape:window-height="1008"
     inkscape:window-x="0"
     inkscape:window-y="0"
     inkscape:window-maximized="1"
     inkscape:current-layer="svg1" />
  <title
     id="title1">Bluesky butterfly logo</title>
  <path
     fill="currentColor"
     d="M123.121 33.664C188.241 82.553 258.281 181.68 284 234.873c25.719-53.192 95.759-152.32 160.879-201.21C491.866-1.611 568-28.906 568 57.947c0 17.346-9.945 145.713-15.778 166.555-20.275 72.453-94.155 90.933-159.875 79.748C507.222 323.8 536.444 388.56 473.333 453.32c-119.86 122.992-172.272-30.859-185.702-70.281-2.462-7.227-3.614-10.608-3.631-7.733-.017-2.875-1.169.506-3.631 7.733-13.43 39.422-65.842 193.273-185.702 70.281-63.111-64.76-33.89-129.52 80.986-149.071-65.72 11.185-139.6-7.295-159.875-79.748C9.945 203.659 0 75.291 0 57.946 0-28.906 76.135-1.612 123.121 33.664Z"
     id="path1"
     style="fill:#d9d9d9;fill-opacity:1" />
  <metadata
     id="metadata1">
    <rdf:RDF>
      <cc:Work
         rdf:about="">
        <dc:title>Bluesky butterfly logo</dc:title>
      </cc:Work>
    </rdf:RDF>
  </metadata>
</svg>
